<?xml version="1.0" encoding="UTF-8" standalone="no"?>
<!-- Created with Inkscape (http://www.inkscape.org/) -->

<svg
   width="32"
   height="32"
   viewBox="0 0 8.4666666 8.4666666"
   version="1.1"
   id="svg5"
   inkscape:version="1.2.2 (b0a8486541, 2022-12-01)"
   sodipodi:docname="icon-instagram-hover.svg"
   xmlns:inkscape="http://www.inkscape.org/namespaces/inkscape"
   xmlns:sodipodi="http://sodipodi.sourceforge.net/DTD/sodipodi-0.dtd"
   xmlns:xlink="http://www.w3.org/1999/xlink"
   xmlns="http://www.w3.org/2000/svg"
   xmlns:svg="http://www.w3.org/2000/svg">
  <sodipodi:namedview
     id="namedview7"
     pagecolor="#ffffff"
     bordercolor="#000000"
     borderopacity="0.25"
     inkscape:showpageshadow="2"
     inkscape:pageopacity="0.0"
     inkscape:pagecheckerboard="0"
     inkscape:deskcolor="#d1d1d1"
     inkscape:document-units="mm"
     showgrid="false"
     inkscape:zoom="11.78125"
     inkscape:cx="-12.222812"
     inkscape:cy="19.183024"
     inkscape:window-width="1680"
     inkscape:window-height="999"
     inkscape:window-x="0"
     inkscape:window-y="27"
     inkscape:window-maximized="1"
     inkscape:current-layer="layer1" />
  <defs
     id="defs2">
    <linearGradient
       id="linearGradient3610"
       inkscape:swatch="solid">
      <stop
         style="stop-color:#d996e6;stop-opacity:1;"
         offset="0"
         id="stop3608" />
    </linearGradient>
    <linearGradient
       id="linearGradient3604"
       inkscape:swatch="solid">
      <stop
         style="stop-color:#000000;stop-opacity:1;"
         offset="0"
         id="stop3602" />
    </linearGradient>
    <linearGradient
       id="linearGradient3598"
       inkscape:swatch="solid">
      <stop
         style="stop-color:#000000;stop-opacity:0.45592186;"
         offset="0"
         id="stop3596" />
    </linearGradient>
    <linearGradient
       inkscape:collect="always"
       xlink:href="#linearGradient3610"
       id="linearGradient3612"
       x1="0.017901421"
       y1="4.2404022"
       x2="8.4727707"
       y2="4.2404022"
       gradientUnits="userSpaceOnUse"
       gradientTransform="matrix(1.0287705,0,0,1.0338249,-0.12396994,-0.11522395)" />
  </defs>
  <g
     inkscape:label="Laag 1"
     inkscape:groupmode="layer"
     id="layer1">
    <path
       style="fill:none;fill-opacity:1;stroke:url(#linearGradient3612);stroke-width:0.19919;stroke-dasharray:none"
       id="path229"
       sodipodi:type="arc"
       sodipodi:cx="4.2435064"
       sodipodi:cy="4.2686095"
       sodipodi:rx="4.0893402"
       sodipodi:ry="4.1017981"
       sodipodi:start="4.9053602"
       sodipodi:end="4.9012623"
       sodipodi:open="true"
       sodipodi:arc-type="arc"
       d="M 5.027743,0.24294592 A 4.0893402,4.1017981 0 0 1 8.2577447,5.0511106 4.0893402,4.1017981 0 0 1 3.4674949,8.2958764 4.0893402,4.1017981 0 0 1 0.22767811,3.4943602 4.0893402,4.1017981 0 0 1 5.0112897,0.23975622" />
    <path
       fill="#000000"
       d="m 6.0178959,2.1573752 h -3.439583 c -0.218281,0 -0.396875,0.1785937 -0.396875,0.396875 v 3.4395833 c 0,0.2182812 0.178594,0.396875 0.396875,0.396875 h 3.439583 c 0.218282,0 0.396875,-0.1785938 0.396875,-0.396875 V 2.5542502 c 0,-0.2182813 -0.178593,-0.396875 -0.396875,-0.396875 z m -0.926041,0.6614583 c 0,-0.07276 0.05953,-0.1322916 0.132291,-0.1322916 h 0.529167 c 0.07276,0 0.132292,0.059531 0.132292,0.1322916 v 0.5291667 c 0,0.07276 -0.05953,0.1322916 -0.132292,0.1322916 h -0.529167 c -0.07276,0 -0.132291,-0.059531 -0.132291,-0.1322916 z m -0.79375,0.6614583 c 0.43815,0 0.79375,0.3556 0.79375,0.79375 0,0.43815 -0.3556,0.79375 -0.79375,0.79375 -0.43815,0 -0.79375,-0.3556 -0.79375,-0.79375 0,-0.43815 0.3556,-0.79375 0.79375,-0.79375 z m 1.5875,2.2489584 v 0 c 0,0.07276 -0.05953,0.1322916 -0.132292,0.1322916 h -2.910417 c -0.07276,0 -0.132291,-0.059531 -0.132291,-0.1322916 v 0 -1.7197917 h 0.291041 c -0.01746,0.085196 -0.02646,0.1735667 -0.02646,0.2645833 0,0.7307792 0.591873,1.3229167 1.322917,1.3229167 0.731043,0 1.322916,-0.5921375 1.322916,-1.3229167 0,-0.091017 -0.009,-0.1793875 -0.02646,-0.2645833 h 0.291042 z"
       id="path57"
       style="stroke-width:0.264583;fill:#d996e6;fill-opacity:1" />
  </g>
</svg>
